<?xml version="1.0" encoding="UTF-8"?>
<svg id="Layer_1" xmlns="http://www.w3.org/2000/svg" viewBox="0 0 720 720">
  <defs>
    <style>
      .cls-1 {
        fill: #09bc8a;
      }
    </style>
  </defs>
  <path class="cls-1" d="M694,27.22v71.43h-237.31l13.47-7.81-20.13-23.72-33.86-39.9h277.83M720,1.22h-360l70.21,82.72-70.21,40.7h360V1.22h0Z"/>
  <path class="cls-1" d="M692.64,168.29v177.86h-224.03v-177.86h224.03M721.64,139.29h-282.03v235.86h282.03v-235.86h0Z"/>
  <polygon class="cls-1" points="441.39 389.81 439.61 389.81 439.61 391.59 441.39 389.81 441.39 389.81"/>
  <path class="cls-1" d="M219.85,35.88v211.73H44.85V35.88h175M239.85,15.88H24.85v251.73h215V15.88h0Z"/>
  <polygon class="cls-1" points="202.54 349.14 24.85 268.77 24.85 17.05 202.54 97.41 202.54 349.14"/>
  <path class="cls-1" d="M250.34,393.39v49.33l8.49,8.49,60.58,60.58,20.51,20.51,20.51-20.51,92.98-92.99h239.24v272.84s-224.03,0-224.03,0v-168.29s0-70.01,0-70.01l-49.51,49.51-78.96,78.96-.22-.22-.22.22-105.73-105.73-8.49-8.49h-49.33v-74.2h74.2M279.34,364.39h-132.2v132.2h66.32l126.24,126.24.22-.22.22.22,99.47-99.47v197.29h282.03v-330.84h-280.25l-1.78,1.78-99.69,99.7-60.58-60.58v-66.32h0Z"/>
</svg>