<?xml version="1.0" encoding="UTF-8"?>
<svg id="Layer_1" xmlns="http://www.w3.org/2000/svg" viewBox="0 0 720 720">
  <defs>
    <style>
      .cls-1 {
        fill: #818181;
      }
    </style>
  </defs>
  <path class="cls-1" d="M704.75,336.07c-13.93-40.1-36.89-81.9-66.85-122.31v49.88h-43.24c21.94,31.36,38.81,63.15,49.36,93.52,16.24,46.77,15.17,83.98-2.94,102.09,0,0,0,0-.01.01-18.12,18.1-55.33,19.17-102.08,2.93-46.26-16.07-95.8-46.78-142.13-87.79l141.07-141.07h69.61v-115.71h-115.71v69.61l-141.37,141.37c-43.58-47.96-76.19-99.68-92.92-147.86-16.24-46.76-15.17-83.96,2.93-102.08,0,0,0,0,.01-.01h0c9.59-9.59,24.52-14.4,43.39-14.4,16.79,0,36.69,3.81,58.7,11.46,31.25,10.85,64,28.39,96.24,51.27v-42.43h50.78c-41.53-31.28-84.62-55.22-125.93-69.57C311.66-10.03,251.76-3.56,215.01,33.19c-31.82,31.82-56.46,68.93-73.24,110.31-16.2,39.95-24.42,82.16-24.42,125.45s8.21,85.5,24.42,125.45c15.68,38.68,38.24,73.63,67.1,104.01v200.49h106.04v-125.4c3.44,1.53,6.91,3.03,10.41,4.45,39.95,16.2,82.16,24.42,125.45,24.42s85.5-8.21,125.45-24.42c41.31-16.75,78.37-41.34,110.15-73.08.05-.05.11-.11.16-.16,36.75-36.75,43.22-96.65,18.22-168.65ZM260.47,459.26c-72.49-72.49-94.89-176.38-67.22-268.29,1.11,3.59,2.28,7.21,3.55,10.87,22.31,64.22,67.78,132.78,128.05,193.05,60.27,60.27,128.82,105.74,193.05,128.05,3.65,1.27,7.26,2.45,10.85,3.56-91.9,27.65-195.78,5.25-268.26-67.23Z"/>
  <g>
    <path class="cls-1" d="M518.45,57.57h143.71v145.11c24.12,33.55,43.45,67.67,57.57,100.85V0h-298.77c32.19,14.48,65.14,33.8,97.49,57.57Z"/>
    <path class="cls-1" d="M715.12,518.58l.36.36c-16.66,16.66-34.53,31.38-53.32,44.16v98.79H57.84V57.57h92.62c13.35-20.14,28.89-39.26,46.64-57.01l.36.36c.34-.31.69-.61,1.04-.92H.27v719.45h719.45v-206.33c-1.48,1.86-3.01,3.68-4.61,5.46Z"/>
  </g>
</svg>