<?xml version="1.0" encoding="UTF-8"?>
<svg id="Layer_2" data-name="Layer 2" xmlns="http://www.w3.org/2000/svg" viewBox="0 0 1000 1000">
  <defs>
    <style>
      .cls-1 {
        fill: #09bc8a;
        stroke-width: 0px;
      }
    </style>
  </defs>
  <path class="cls-1" d="M979.19,467.92c-19.36-55.74-51.28-113.84-92.92-170.01v69.33h-60.11c30.5,43.59,53.95,87.77,68.61,129.99,22.58,65.01,21.08,116.73-4.09,141.91,0,0-.01.01-.02.02-25.18,25.16-76.9,26.65-141.89,4.08-64.3-22.33-133.16-65.02-197.56-122.02l196.08-196.08h96.75v-160.83h-160.83v96.75l-196.5,196.5c-60.58-66.66-105.9-138.55-129.16-205.52-22.57-64.99-21.08-116.7,4.07-141.89,0,0,.01-.01.02-.02h0c13.33-13.32,34.08-20.01,60.31-20.01,23.33,0,50.99,5.29,81.59,15.92,43.44,15.09,88.95,39.46,133.77,71.26v-58.98h70.58c-57.73-43.48-117.62-76.76-175.03-96.7-100.08-34.76-183.33-25.77-234.41,25.32-44.22,44.22-78.47,95.81-101.8,153.33-22.52,55.53-33.94,114.2-33.94,174.37s11.42,118.84,33.94,174.37c21.8,53.76,53.15,102.33,93.26,144.56v278.67h147.39v-174.3c4.79,2.13,9.6,4.22,14.47,6.19,55.53,22.52,114.2,33.94,174.37,33.94s118.83-11.42,174.37-33.94c57.42-23.28,108.93-57.46,153.1-101.58.07-.07.15-.15.23-.22,51.08-51.08,60.08-134.33,25.32-234.41ZM361.66,639.14c-100.76-100.76-131.89-245.16-93.44-372.91,1.54,5,3.16,10.03,4.93,15.11,31,89.27,94.21,184.56,177.98,268.33,83.77,83.77,179.06,146.97,268.33,177.98,5.07,1.76,10.09,3.41,15.07,4.94-127.74,38.43-272.12,7.3-372.87-93.45Z"/>
  <g>
    <path class="cls-1" d="M720.23,80.82h199.75v201.69c33.52,46.64,60.4,94.05,80.01,140.18V.8h-415.27c44.75,20.13,90.54,46.98,135.51,80.01Z"/>
    <path class="cls-1" d="M993.6,721.6l.5.5c-23.16,23.16-47.99,43.62-74.11,61.38v137.31H80.01V80.82h128.73c18.55-28,40.16-54.57,64.83-79.24l.5.5c.48-.43.96-.85,1.44-1.27H0v1000h1000v-286.78c-2.05,2.59-4.18,5.12-6.4,7.58Z"/>
  </g>
</svg>