<?xml version="1.0" encoding="UTF-8"?>
<svg id="Layer_1" xmlns="http://www.w3.org/2000/svg" viewBox="0 0 720 720">
  <defs>
    <style>
      .cls-1 {
        fill: #09bc8a;
      }
    </style>
  </defs>
  <polygon class="cls-1" points="685.06 454.25 578.81 454.25 578.81 348 492.6 348 492.6 454.25 386.35 454.25 386.35 540.45 492.6 540.45 492.6 646.71 578.81 646.71 578.81 540.45 685.06 540.45 685.06 454.25"/>
  <polygon class="cls-1" points="331.12 454.59 22.94 454.59 22.94 720 106.94 720 106.94 538.59 331.12 538.59 331.12 454.59"/>
  <rect class="cls-1" x="613.06" y="585.65" width="84" height="134.35"/>
  <polygon class="cls-1" points="439.29 323.29 235.06 323.29 235.06 85.41 472.94 85.41 472.94 284.31 556.94 284.31 556.94 1.41 151.06 1.41 151.06 407.29 439.29 407.29 439.29 323.29"/>
</svg>