<?xml version="1.0" encoding="UTF-8"?>
<svg id="Layer_1" xmlns="http://www.w3.org/2000/svg" viewBox="0 0 720 720">
  <defs>
    <style>
      .cls-1 {
        fill: #09bc8a;
      }
    </style>
  </defs>
  <path class="cls-1" d="M390.91,48.17v92l33.84,10.45c32.76,10.12,63.18,28.2,87.96,52.29l25.38,24.68,31.07-16.96,49.75-27.15,29.62,54.25-49.69,27.12-31.04,16.94,6.98,34.67c2.87,14.25,4.33,28.9,4.33,43.54,0,16.44-1.83,32.84-5.44,48.75l-7.83,34.49,30.62,17.7,49.01,28.32-30.93,53.52-49.07-28.36-30.66-17.72-25.98,24.06c-24,22.23-53.07,39.04-84.08,48.61l-33.84,10.45v92h-61.81v-92l-33.84-10.45c-32.76-10.12-63.18-28.2-87.96-52.29l-25.38-24.68-31.07,16.96-49.75,27.15-29.61-54.25,49.69-27.12,31.04-16.94-6.98-34.67c-2.87-14.25-4.33-28.91-4.33-43.55,0-16.44,1.83-32.84,5.44-48.75l7.83-34.49-30.62-17.7-49.01-28.32,30.93-53.52,49.07,28.35,30.66,17.72,25.98-24.06c24-22.23,53.07-39.04,84.09-48.61l33.84-10.45V48.17h61.81M438.91.17h-157.81v104.59c-38.67,11.94-73.58,32.44-102.54,59.26l-90.63-52.37L8.97,248.28l90.57,52.34c-4.34,19.1-6.63,38.97-6.63,59.38,0,18.16,1.82,35.89,5.27,53.02L6.35,463.14l75.61,138.52,91.88-50.15c29.85,29.03,66.46,51.14,107.25,63.73v104.59h157.81v-104.59c38.67-11.94,73.58-32.44,102.54-59.26l90.63,52.37,78.96-136.64-90.57-52.34c4.34-19.1,6.63-38.97,6.63-59.38,0-18.16-1.82-35.88-5.27-53.02l91.82-50.12-75.61-138.52-91.88,50.15c-29.85-29.03-66.46-51.14-107.25-63.73V.17h0Z"/>
  <path class="cls-1" d="M360,255.79c57.46,0,104.21,46.75,104.21,104.21s-46.75,104.21-104.21,104.21-104.21-46.75-104.21-104.21,46.75-104.21,104.21-104.21M360,207.79c-84.06,0-152.21,68.14-152.21,152.21s68.14,152.21,152.21,152.21,152.21-68.15,152.21-152.21-68.15-152.21-152.21-152.21h0Z"/>
</svg>