<?xml version="1.0" encoding="UTF-8" standalone="no"?>
<!DOCTYPE svg PUBLIC "-//W3C//DTD SVG 1.1//EN" "http://www.w3.org/Graphics/SVG/1.1/DTD/svg11.dtd">
<svg width="100%" height="100%" viewBox="0 0 720 720" version="1.1" xmlns="http://www.w3.org/2000/svg" xmlns:xlink="http://www.w3.org/1999/xlink" xml:space="preserve" xmlns:serif="http://www.serif.com/" style="fill-rule:evenodd;clip-rule:evenodd;stroke-linecap:round;stroke-linejoin:round;stroke-miterlimit:1.5;">
    <g transform="matrix(1,0,0,1,-878,-9710)">
        <g id="ScoreSlope" transform="matrix(1,0,0,1,878,9710)">
            <rect x="0" y="0" width="720" height="720" style="fill:none;"/>
            <clipPath id="_clip1">
                <rect x="0" y="0" width="720" height="720"/>
            </clipPath>
            <g clip-path="url(#_clip1)">
                <g id="Layer-1" serif:id="Layer 1">
                </g>
                <g transform="matrix(1,0,0,1,-3311,-8190.68)">
                    <path d="M3311,8580L4031,8355" style="fill:none;stroke:rgb(9,188,138);stroke-width:80px;"/>
                </g>
                <g transform="matrix(3.61111,0,0,3.61111,-13275,-29818.8)">
                    <rect x="3816" y="8268" width="18" height="18" style="fill:rgb(9,188,138);"/>
                </g>
                <g transform="matrix(3.61111,0,0,3.61111,-13333,-29511.1)">
                    <rect x="3816" y="8268" width="18" height="18" style="fill:rgb(9,188,138);"/>
                </g>
                <g transform="matrix(3.61111,0,0,3.61111,-13617,-29467.3)">
                    <rect x="3816" y="8268" width="18" height="18" style="fill:rgb(9,188,138);"/>
                </g>
                <g transform="matrix(3.61111,0,0,3.61111,-13452.5,-29757.3)">
                    <rect x="3816" y="8268" width="18" height="18" style="fill:rgb(9,188,138);"/>
                </g>
                <g transform="matrix(3.61111,0,0,3.61111,-13133.7,-29576.1)">
                    <rect x="3816" y="8268" width="18" height="18" style="fill:rgb(9,188,138);"/>
                </g>
                <g transform="matrix(1,0,0,1,-878,-9710)">
                    <rect x="878" y="9710" width="105" height="720" style="fill:rgb(9,188,138);"/>
                </g>
                <g transform="matrix(6.12323e-17,1,-1,6.12323e-17,10430,-263)">
                    <rect x="878" y="9710" width="105" height="720" style="fill:rgb(9,188,138);"/>
                </g>
            </g>
        </g>
    </g>
</svg>
