<?xml version="1.0" encoding="UTF-8"?>
<svg id="Layer_1" data-name="Layer 1" xmlns="http://www.w3.org/2000/svg" viewBox="0 0 720 720">
  <defs>
    <style>
      .cls-1 {
        fill: #09bc8a;
        stroke-width: 0px;
      }

      .cls-2 {
        fill: none;
        stroke: #09bc8a;
        stroke-miterlimit: 10;
        stroke-width: 70px;
      }
    </style>
  </defs>
  <g>
    <path class="cls-1" d="M363.53,566.16H2.1V204.73h361.43v361.43ZM56.93,511.33h251.77v-251.77H56.93v251.77Z"/>
    <line class="cls-2" x1="517.14" y1="55.21" x2="339.84" y2="232.51"/>
    <polygon class="cls-1" points="566.05 208.37 511.22 208.37 511.22 57.04 359.89 57.04 359.89 2.21 566.05 2.21 566.05 208.37"/>
  </g>
  <g>
    <path class="cls-1" d="M515.38,717.79H153.95v-361.43h361.43v361.43ZM208.78,662.96h251.77v-251.77h-251.77v251.77Z"/>
    <line class="cls-2" x1="668.99" y1="206.84" x2="491.69" y2="384.14"/>
    <polygon class="cls-1" points="717.9 360 663.07 360 663.07 208.67 511.74 208.67 511.74 153.84 717.9 153.84 717.9 360"/>
  </g>
</svg>